<?xml version="1.0" standalone="no"?>
<!DOCTYPE svg PUBLIC "-//W3C//DTD SVG 20010904//EN"
 "http://www.w3.org/TR/2001/REC-SVG-20010904/DTD/svg10.dtd">
<svg version="1.0" xmlns="http://www.w3.org/2000/svg"
 width="225.000000pt" height="225.000000pt" viewBox="0 0 225.000000 225.000000"
 preserveAspectRatio="xMidYMid meet">

<g transform="translate(0.000000,225.000000) scale(0.100000,-0.100000)"
fill="#000000" stroke="none">
<path d="M1030 1719 c-75 -34 -125 -92 -140 -164 -5 -27 -10 -31 -53 -35 -154
-18 -194 -230 -56 -300 71 -37 150 -22 201 38 22 26 26 27 53 16 39 -17 141
-17 180 0 27 11 31 10 53 -16 51 -60 130 -75 201 -38 53 26 83 78 83 140 0 87
-55 150 -139 160 -43 4 -48 8 -53 35 -22 104 -125 185 -235 185 -29 0 -69 -9
-95 -21z m202 -65 c52 -36 81 -92 82 -156 1 -39 4 -47 16 -42 88 39 170 -10
170 -102 0 -48 -53 -104 -99 -104 -61 0 -121 52 -121 105 0 17 -16 20 -25 5
-14 -22 -86 -50 -130 -50 -44 0 -116 28 -130 50 -9 15 -25 12 -25 -5 0 -53
-60 -105 -121 -105 -46 0 -99 56 -99 104 0 94 81 141 173 101 15 -6 17 -4 12
17 -9 34 12 106 40 144 59 78 176 95 257 38z"/>
<path d="M860 1183 c-31 -11 -80 -68 -86 -99 -14 -77 36 -144 114 -152 93 -9
149 47 140 140 -3 28 -13 57 -24 69 -34 39 -101 58 -144 42z m79 -58 c47 -24
56 -83 19 -122 -38 -41 -105 -28 -128 26 -15 37 2 79 40 98 32 16 35 16 69 -2z"/>
<path d="M1246 1168 c-19 -26 -22 -167 -6 -199 10 -17 22 -19 115 -19 125 0
125 0 125 117 0 116 -7 123 -125 123 -86 0 -95 -2 -109 -22z m174 -98 l0 -70
-65 0 -65 0 0 70 0 70 65 0 65 0 0 -70z"/>
<path d="M1056 1015 c-36 -63 -66 -117 -66 -120 0 -3 61 -5 135 -5 74 0 135 2
135 5 0 8 -131 235 -135 235 -2 0 -33 -52 -69 -115z m100 -37 l15 -28 -46 0
-46 0 22 40 c24 42 25 42 55 -12z"/>
<path d="M1105 785 c-28 -27 -30 -37 -14 -66 13 -24 50 -40 78 -32 30 8 30 63
0 63 -16 0 -19 -4 -14 -20 5 -16 2 -20 -14 -20 -30 0 -41 48 -15 67 10 8 27
12 37 9 10 -2 17 1 17 10 0 23 -49 16 -75 -11z"/>
<path d="M1360 773 c0 -21 -3 -48 -6 -60 -5 -17 -2 -23 10 -23 12 0 16 10 17
43 l1 42 11 -39 c17 -54 32 -55 50 -4 l15 43 1 -42 c1 -31 5 -43 16 -43 13 0
14 10 9 58 -4 31 -8 59 -10 61 -10 11 -33 -12 -39 -38 -9 -41 -21 -39 -29 4
-5 26 -12 35 -26 35 -16 0 -20 -7 -20 -37z"/>
<path d="M1500 750 l0 -60 40 0 c22 0 40 5 40 10 0 6 -11 10 -25 10 -16 0 -25
6 -25 15 0 9 9 15 25 15 14 0 25 5 25 10 0 6 -11 10 -25 10 -16 0 -25 6 -25
15 0 9 9 15 25 15 14 0 25 5 25 10 0 6 -18 10 -40 10 l-40 0 0 -60z"/>
<path d="M632 743 c3 -55 4 -58 28 -55 35 4 47 19 33 41 -6 10 -8 23 -3 32 12
19 -7 39 -37 39 -23 0 -24 -2 -21 -57z m46 30 c-5 -26 -38 -29 -38 -4 0 15 6
21 21 21 14 0 19 -5 17 -17z m6 -48 c3 -8 -3 -19 -13 -24 -21 -12 -31 -5 -31
21 0 22 35 25 44 3z"/>
<path d="M710 762 c0 -40 23 -82 45 -82 27 0 45 31 45 76 0 24 -3 44 -8 44 -4
0 -6 -17 -4 -38 3 -27 -1 -44 -13 -56 -25 -25 -45 -3 -45 50 0 24 -4 44 -10
44 -5 0 -10 -17 -10 -38z"/>
<path d="M820 746 c0 -62 7 -70 44 -56 26 9 38 50 15 50 -8 0 -8 5 1 15 17 20
-3 45 -36 45 -22 0 -24 -4 -24 -54z m48 27 c-5 -26 -38 -29 -38 -4 0 15 6 21
21 21 14 0 19 -5 17 -17z m8 -45 c8 -12 -24 -40 -37 -32 -5 3 -9 14 -9 25 0
21 34 27 46 7z"/>
<path d="M912 748 l-2 -58 33 1 c29 2 30 2 5 6 -25 4 -27 9 -31 56 l-3 52 -2
-57z"/>
<path d="M980 745 l0 -55 33 1 c31 2 31 2 4 6 -35 5 -33 34 3 44 l25 6 -25 4
c-14 2 -25 11 -25 19 0 8 11 17 25 21 23 6 22 7 -7 8 l-33 1 0 -55z"/>
<path d="M1238 750 c-16 -28 -28 -52 -28 -55 0 -3 27 -5 60 -5 33 0 60 3 60 6
0 10 -54 104 -60 104 -3 0 -17 -23 -32 -50z m52 -32 c0 -5 -9 -8 -20 -8 -23 0
-26 10 -8 28 9 9 14 9 20 -1 4 -6 8 -15 8 -19z"/>
<path d="M1595 710 c-4 -6 -3 -16 3 -22 6 -6 12 -6 17 2 4 6 3 16 -3 22 -6 6
-12 6 -17 -2z"/>
</g>
</svg>
